<?xml version="1.0" encoding="utf-8"?>
<!-- Generator: Adobe Illustrator 25.4.1, SVG Export Plug-In . SVG Version: 6.00 Build 0)  -->
<svg version="1.1" id="Capa_1" xmlns="http://www.w3.org/2000/svg" xmlns:xlink="http://www.w3.org/1999/xlink" x="0px" y="0px"
	 viewBox="0 0 1125 2436" style="enable-background:new 0 0 1125 2436;" xml:space="preserve">
<style type="text/css">
	.st0{opacity:0.83;}
	.st1{fill:#FF6583;}
	.st2{fill:#790000;}
	.st3{fill:#FFFFFF;}
	.st4{fill:#F4DE3B;}
	.st5{fill:#FFFFFF;stroke:#790000;stroke-width:9;stroke-miterlimit:10;}
	.st6{fill:url(#SVGID_1_);}
	.st7{fill:#DAA399;stroke:#790000;stroke-width:4;stroke-miterlimit:10;}
	.st8{fill:none;stroke:#790000;stroke-width:9;stroke-miterlimit:10;}
	.st9{fill:url(#SVGID_00000158017346636632876510000005434478014042538683_);}
	.st10{fill:url(#SVGID_00000090991588048690227020000004381218514915696537_);}
	.st11{fill:url(#SVGID_00000019678256879549576730000013982479834046255523_);}
	.st12{fill:#DAA399;}
	.st13{fill:#FFB8FF;stroke:#000000;stroke-width:4;stroke-miterlimit:10;}
	.st14{fill:#C5FCFF;}
	.st15{fill:none;stroke:#000000;stroke-width:7;stroke-miterlimit:10;}
	.st16{opacity:0.4;}
	.st17{fill:url(#SVGID_00000056425208694887095870000009379332837472587421_);}
	.st18{fill:url(#SVGID_00000068653110816813916460000011329485420104620715_);stroke:#790000;stroke-miterlimit:10;}
	.st19{fill:url(#SVGID_00000018953264577603062860000016878488550801006226_);}
</style>
<g>
	<rect x="555.1" y="1892" width="14" height="74"/>
	<circle class="st0" cx="370.1" cy="1067" r="57"/>
	<circle class="st0" cx="743.1" cy="1067" r="57"/>
	<g class="st0">
		<path d="M742.1,1454c-0.6-6.1-5.5-3.5-11.4,1.3c-4.5,3.6-9.5,6.4-14.9,8.2c-13.4,4.6-33,9.2-56.7,8.5c-21.8-0.7-45.1-10.5-60.9-18
			c-8.6-4.1-14.1-12.9-14.1-22.4v-43.2c0-11.5,7.9-21.5,19.1-24.2c23.8-5.9,48-19.9,56.9-39.1c1-2.2,14.4-32.1,0-59
			c-14.5-26.9-47.9-34.1-73.9-35.3l0,0c-2.2-0.1-4.6-0.2-7.1-0.2c-0.1,0-0.1,0-0.2,0c-0.5,0-1.1,0-1.6,0c-0.5,0-1.1,0-1.6,0
			c-0.1,0-0.1,0-0.2,0c-2.5,0-4.9,0.1-7.1,0.2l0,0c-26.1,1.2-59.5,8.4-73.9,35.3c-14.4,26.9-1,56.8,0,59
			c8.9,19.1,32.1,31.9,55.4,37.3c11.2,2.6,19.3,12.4,19.5,23.9c0.2,14.2,0.5,29.9,0.7,43.5c0.1,9.3-5,17.9-13.2,22.3
			c-14.9,7.9-36.6,18.3-58.4,18.9c-27.7,0.9-49.7-5.7-63-10.8c-1.9-0.7-3.7-1.7-5.4-2.9c-7.8-5.5-17-10.6-17.7-3.3
			c-1.6,16.2,31,29.5,37,32c29.3,12,56.3,7.8,67,6c19.6-3.3,35.9-10.3,48.4-17.5c7.7-4.5,17.2-4.5,25,0
			c12.5,7.2,28.8,14.2,48.4,17.5c10.7,1.8,37.7,6,67-6C711.1,1483.5,743.7,1470.2,742.1,1454z"/>
		<ellipse class="st3" cx="558.1" cy="1261.5" rx="20" ry="12.5"/>
		<circle class="st3" cx="342.7" cy="1046.4" r="18.6"/>
		<circle class="st3" cx="370" cy="1067.2" r="10.8"/>
		<circle class="st3" cx="769.7" cy="1044.4" r="18.6"/>
		<circle class="st3" cx="748" cy="1069.2" r="10.8"/>
		<ellipse class="st12" cx="809.6" cy="1272" rx="75.5" ry="25"/>
		<ellipse class="st12" cx="356.6" cy="1268" rx="75.5" ry="25"/>
	</g>
	<g>
		<path class="st5" d="M427.1,849c-33.8-47.9-64.1-86.2-87-114c-34.2-41.5-50.7-57.7-75-72c-19.5-11.4-60.4-35.5-99-21
			c-13.1,4.9-25.3,14-42,37c-42,57.9-52.7,121.6-56,152c-8,73.2,7.2,130.8,18,172c9.3,35.4,20.4,64,29,84
			c20.4-36.1,55.9-88.4,114-137C305.2,886.3,382.9,860.3,427.1,849z"/>
		<linearGradient id="SVGID_1_" gradientUnits="userSpaceOnUse" x1="73.9049" y1="859.2139" x2="327.4594" y2="859.2139">
			<stop  offset="0" style="stop-color:#FFC9A1"/>
			<stop  offset="1" style="stop-color:#F9CC9E;stop-opacity:0.5"/>
		</linearGradient>
		<path class="st6" d="M394.1,848c-30.5-46.3-53.8-76.5-74.5-103.3c-30.9-40.1-45.8-55.8-67.8-69.6c-17.6-11.1-54.5-34.3-89.4-20.3
			c-11.9,4.8-22.9,13.6-37.9,35.8c-38,56-44.2,115.2-48.4,144.4c-8,57,7.4,126.4,18,166c8,30,14.2,47.6,22,67
			c18.4-34.9,58.1-81.5,111-128C285.1,889,354.1,862,394.1,848z"/>
		<path class="st7" d="M165.1,711c-26.4,11.6-33.6,48-40,83c-7.1,38.8-12.8,107.2,17,195c18.8-22.3,44.1-48.1,77-73
			c49.4-37.4,97.5-58.7,133-71c-12.2-21.7-34.7-55.9-73-87C251.7,735.7,201.5,695,165.1,711z"/>
	</g>
	<g>
		<path class="st5" d="M697.9,847c33.8-47.9,64.1-86.2,87-114c34.2-41.5,50.7-57.7,75-72c19.5-11.4,60.4-35.5,99-21
			c13.1,4.9,25.3,14,42,37c42,57.9,52.7,121.6,56,152c8,73.2-7.2,130.8-18,172c-9.3,35.4-20.4,64-29,84
			c-20.4-36.1-55.9-88.4-114-137C819.8,884.3,742.1,858.3,697.9,847z"/>
		
			<linearGradient id="SVGID_00000052072472982338449230000009265880195684984496_" gradientUnits="userSpaceOnUse" x1="-556.3378" y1="857.2139" x2="-302.7832" y2="857.2139" gradientTransform="matrix(-1 0 0 1 494.7573 0)">
			<stop  offset="0" style="stop-color:#FFC9A1"/>
			<stop  offset="1" style="stop-color:#F9CC9E;stop-opacity:0.5"/>
		</linearGradient>
		<path style="fill:url(#SVGID_00000052072472982338449230000009265880195684984496_);stroke:#790000;stroke-miterlimit:10;" d="
			M730.9,846c30.5-46.3,53.8-76.5,74.5-103.3c30.9-40.1,45.8-55.8,67.8-69.6c17.6-11.1,54.5-34.3,89.4-20.3
			c11.9,4.8,22.9,13.6,37.9,35.8c38,56,44.2,115.2,48.4,144.4c8,57-7.4,126.4-18,166c-8,30-14.2,47.6-22,67
			c-18.4-34.9-58.1-81.5-111-128C839.9,887,770.9,860,730.9,846z"/>
		<path class="st7" d="M959.9,709c26.4,11.6,33.6,48,40,83c7.1,38.8,12.8,107.2-17,195c-18.8-22.3-44.1-48.1-77-73
			c-49.4-37.4-97.5-58.7-133-71c12.2-21.7,34.7-55.9,73-87C873.3,733.7,923.5,693,959.9,709z"/>
	</g>
	<path class="st13" d="M532.1,1950.5c-19.8-0.8-36,16.1-40.3,29.1c-8.4,25.4,18.8,64.6,71.6,91.8c52.4-26.8,80.6-65.6,72.5-91.8
		c-4.1-13.1-20.3-29-40.3-29.1c-18.6-0.1-31.1,13.7-33.5,16.5C559.5,1963.8,548.7,1951.2,532.1,1950.5z"/>
	<g>
		<path class="st14" d="M984.1,1718.1c-218.2,274-635.7,274-853.9,0c-5.6-7-5.6-16.1-0.3-20c5.1-3.8,10.1-7.6,15.2-11.4
			c5.3-3.9,13.7-1.8,18.7,4.6c201.1,252.4,585.7,252.4,786.7,0c5.1-6.4,13.4-8.5,18.7-4.6c5.1,3.8,10.1,7.6,15.2,11.4
			C989.7,1702,989.6,1711.2,984.1,1718.1z"/>
		<path class="st15" d="M984.1,1718.1c-218.2,274-635.7,274-853.9,0c-5.6-7-5.6-16.1-0.3-20c5.1-3.8,10.1-7.6,15.2-11.4
			c5.3-3.9,13.7-1.8,18.7,4.6c201.1,252.4,585.7,252.4,786.7,0c5.1-6.4,13.4-8.5,18.7-4.6c5.1,3.8,10.1,7.6,15.2,11.4
			C989.7,1702,989.6,1711.2,984.1,1718.1z"/>
	</g>
	<ellipse class="st3" cx="598.6" cy="1978" rx="12.5" ry="6"/>
</g>
</svg>
