<svg id="Capa_1" data-name="Capa 1" xmlns="http://www.w3.org/2000/svg" xmlns:xlink="http://www.w3.org/1999/xlink" viewBox="0 0 1125 2436"><defs><style>.cls-1,.cls-2{opacity:0.83;}.cls-3,.cls-5{fill:#fff;}.cls-4,.cls-7{fill:#daa399;}.cls-5,.cls-7,.cls-8{stroke:#790000;}.cls-11,.cls-5,.cls-7,.cls-8,.cls-9{stroke-miterlimit:10;}.cls-5{stroke-width:9px;}.cls-6{fill:url(#Degradado_sin_nombre_5);}.cls-7,.cls-9{stroke-width:4px;}.cls-8{fill:url(#Degradado_sin_nombre_6);}.cls-9{fill:#ffb8ff;}.cls-11,.cls-9{stroke:#000;}.cls-10{fill:#c5fcff;}.cls-11{fill:none;stroke-width:7px;}</style><linearGradient id="Degradado_sin_nombre_5" x1="73.9" y1="859.21" x2="327.46" y2="859.21" gradientUnits="userSpaceOnUse"><stop offset="0" stop-color="#ffc9a1"/><stop offset="1" stop-color="#fff"/></linearGradient><linearGradient id="Degradado_sin_nombre_6" x1="-552.14" y1="857.21" x2="-235.74" y2="857.21" gradientTransform="matrix(-1, 0, 0, 1, 494.76, 0)" xlink:href="#Degradado_sin_nombre_5"/></defs><rect x="555.12" y="1892" width="14" height="74"/><circle class="cls-1" cx="370.12" cy="1067" r="57"/><circle class="cls-1" cx="743.12" cy="1067" r="57"/><g class="cls-2"><path d="M742.12,1454c-.59-6.11-5.55-3.46-11.43,1.27a49.09,49.09,0,0,1-14.88,8.23,160.76,160.76,0,0,1-56.69,8.5c-21.77-.67-45.06-10.45-60.89-18a24.88,24.88,0,0,1-14.11-22.44v-43.22a25,25,0,0,1,19.07-24.2c23.83-5.86,48-19.94,56.93-39.11,1-2.2,14.43-32.14,0-59s-47.87-34.06-73.94-35.29v0c-2.21-.09-4.59-.15-7.08-.17h-3.71c-2.49,0-4.87.08-7.08.17v0c-26.07,1.23-59.49,8.38-73.94,35.29s-1,56.8,0,59c8.88,19.06,32.08,31.88,55.44,37.26a25,25,0,0,1,19.5,23.94c.21,14.16.53,29.93.7,43.55a24.87,24.87,0,0,1-13.24,22.31c-14.89,7.88-36.55,18.26-58.4,18.94a160.64,160.64,0,0,1-63-10.79,24.91,24.91,0,0,1-5.36-2.87c-7.85-5.5-17-10.6-17.67-3.34-1.57,16.24,31,29.54,37,32,29.28,12,56.32,7.78,67,6a144,144,0,0,0,48.4-17.53,24.89,24.89,0,0,1,25,0,144,144,0,0,0,48.4,17.53c10.68,1.78,37.73,6,67-6C711.15,1483.54,743.69,1470.24,742.12,1454Z"/><ellipse class="cls-3" cx="558.12" cy="1261.5" rx="20" ry="12.5"/><circle class="cls-3" cx="342.65" cy="1046.42" r="18.58"/><circle class="cls-3" cx="370" cy="1067.21" r="10.77"/><circle class="cls-3" cx="769.65" cy="1044.42" r="18.58"/><circle class="cls-3" cx="748" cy="1069.21" r="10.77"/><ellipse class="cls-4" cx="809.62" cy="1272" rx="75.5" ry="25"/><ellipse class="cls-4" cx="356.62" cy="1268" rx="75.5" ry="25"/></g><path class="cls-5" d="M427.12,849c-33.79-47.9-64.08-86.23-87-114-34.22-41.46-50.67-57.7-75-72-19.45-11.43-60.35-35.47-99-21-13.13,4.92-25.33,14-42,37-42,57.91-52.67,121.56-56,152-8,73.25,7.16,130.83,18,172a593.92,593.92,0,0,0,29,84,497.87,497.87,0,0,1,312-238Z"/><path class="cls-6" d="M394.12,848c-30.53-46.31-53.79-76.47-74.5-103.31-30.92-40.08-45.78-55.78-67.76-69.61-17.57-11.05-54.52-34.29-89.44-20.3-11.86,4.75-22.89,13.56-37.94,35.77-38,56-44.25,115.16-48.36,144.45-8,57,7.44,126.39,18,166,8,30,14.2,47.65,22,67,18.44-34.85,58.09-81.47,111-128C285.12,889,354.12,862,394.12,848Z"/><path class="cls-7" d="M165.12,711c-26.43,11.64-33.58,48-40,83-7.1,38.78-12.77,107.19,17,195a480.11,480.11,0,0,1,210-144,302.74,302.74,0,0,0-73-87C251.7,735.74,201.5,695,165.12,711Z"/><path class="cls-5" d="M697.88,847c33.79-47.9,64.08-86.23,87-114,34.22-41.46,50.67-57.7,75-72,19.45-11.43,60.35-35.47,99-21,13.13,4.92,25.33,14,42,37,42,57.91,52.67,121.56,56,152,8,73.25-7.16,130.83-18,172a593.92,593.92,0,0,1-29,84,497.87,497.87,0,0,0-312-238Z"/><path class="cls-8" d="M730.88,846c30.53-46.31,53.79-76.47,74.5-103.31,30.92-40.08,45.78-55.78,67.76-69.61,17.57-11.05,54.52-34.29,89.44-20.3,11.86,4.75,22.89,13.56,37.94,35.77,38,56,44.25,115.16,48.36,144.45,8,57-7.44,126.39-18,166-8,30-14.2,47.65-22,67-18.44-34.85-58.09-81.47-111-128C839.88,887,770.88,860,730.88,846Z"/><path class="cls-7" d="M959.88,709c26.43,11.64,33.58,48,40,83,7.1,38.78,12.77,107.19-17,195a480.11,480.11,0,0,0-210-144,302.74,302.74,0,0,1,73-87C873.3,733.74,923.5,693,959.88,709Z"/><path class="cls-9" d="M532.13,1950.5c-19.82-.83-36,16.06-40.3,29.1-8.38,25.39,18.82,64.57,71.64,91.78,52.35-26.84,80.59-65.61,72.45-91.78-4.06-13.07-20.25-29-40.29-29.1-18.62-.06-31.08,13.71-33.51,16.5C559.55,1963.84,548.65,1951.18,532.13,1950.5Z"/><path class="cls-10" d="M984.09,1718.14c-218.24,274-635.7,274-853.94,0-5.56-7-5.62-16.1-.32-20l15.2-11.4c5.3-3.94,13.65-1.76,18.73,4.6,201.06,252.41,585.66,252.41,786.72,0,5.08-6.36,13.44-8.54,18.74-4.6l15.19,11.4C989.71,1702,989.65,1711.17,984.09,1718.14Z"/><path class="cls-11" d="M984.09,1718.14c-218.24,274-635.7,274-853.94,0-5.56-7-5.62-16.1-.32-20l15.2-11.4c5.3-3.94,13.65-1.76,18.73,4.6,201.06,252.41,585.66,252.41,786.72,0,5.08-6.36,13.44-8.54,18.74-4.6l15.19,11.4C989.71,1702,989.65,1711.17,984.09,1718.14Z"/><ellipse class="cls-3" cx="598.62" cy="1978" rx="12.5" ry="6"/></svg>