<?xml version="1.0" encoding="utf-8"?>
<!-- Generator: Adobe Illustrator 25.4.1, SVG Export Plug-In . SVG Version: 6.00 Build 0)  -->
<svg version="1.1" id="Capa_1" xmlns="http://www.w3.org/2000/svg" xmlns:xlink="http://www.w3.org/1999/xlink" x="0px" y="0px"
	 viewBox="0 0 1125 2436" style="enable-background:new 0 0 1125 2436;" xml:space="preserve">
<style type="text/css">
	.st0{opacity:0.83;}
	.st1{fill:#FF6583;}
	.st2{fill:#790000;}
	.st3{fill:#FFFFFF;}
	.st4{fill:#F4DE3B;}
	.st5{fill:#FFFFFF;stroke:#790000;stroke-width:9;stroke-miterlimit:10;}
	.st6{fill:url(#SVGID_1_);}
	.st7{fill:#DAA399;stroke:#790000;stroke-width:4;stroke-miterlimit:10;}
	.st8{fill:none;stroke:#790000;stroke-width:9;stroke-miterlimit:10;}
	.st9{fill:url(#SVGID_00000041291151924762303840000003055028132740448416_);}
	.st10{fill:url(#SVGID_00000149367210575691624610000001461532177641441177_);}
	.st11{fill:url(#SVGID_00000015342049654634192610000014484912004535592616_);}
	.st12{fill:#DAA399;}
	.st13{fill:#FFB8FF;stroke:#000000;stroke-width:4;stroke-miterlimit:10;}
	.st14{fill:#C5FCFF;}
	.st15{fill:none;stroke:#000000;stroke-width:7;stroke-miterlimit:10;}
	.st16{opacity:0.4;}
	.st17{fill:url(#SVGID_00000137811360116662075710000012784038372731917955_);}
	.st18{fill:url(#SVGID_00000068652585661688027120000009521005459209318785_);stroke:#790000;stroke-miterlimit:10;}
	.st19{fill:url(#SVGID_00000125599078692679429930000017200754583940675468_);}
</style>
<g>
	<g class="st0">
		<g>
			<path class="st1" d="M575,1471c-8.2,0.7-11.1,4.7-25,11c-9.8,4.4-18.4,6.8-24,8v69.5c2.6,4.5,15.5,25.4,41,31
				c19.3,4.3,46.8-0.1,59-20c6-9.8,6.3-20.2,6-26c-0.6-17-1.3-34.5-1.9-51.6c-0.1-1.7-1.5-2.6-1.9-2.7c-8.2-2.3-16-5.6-25.2-9.3
				C588,1475,586.1,1470.1,575,1471z"/>
			<g>
				<path class="st2" d="M577,1534.5c-2-5.2-3-10.5-3.8-15.7c-0.7-5.2-1.1-10.5-1.2-15.7c-0.1-5.2,0.1-10.5,0.7-15.8
					c0.6-5.3,1.5-10.5,3.3-15.8c2,5.2,3,10.5,3.8,15.7c0.7,5.2,1.1,10.5,1.2,15.7c0.1,5.3-0.1,10.5-0.7,15.8
					C579.7,1524,578.8,1529.2,577,1534.5z"/>
			</g>
			<g>
				<path class="st2" d="M534,1511.5c-1,6.4-1.6,12.8-1.3,19c0.1,3.1,0.4,6.2,0.9,9.3c0.4,3.1,1.1,6.1,2,9.1
					c1.7,6,4.1,11.7,7.3,17.1c3.1,5.4,6.9,10.5,11.2,15.4c-5.6-3.3-10.5-8-14.5-13.3c-4-5.3-6.9-11.5-8.8-17.9
					c-0.3-0.8-0.4-1.6-0.6-2.4c-0.2-0.8-0.4-1.6-0.5-2.5c-0.3-1.7-0.6-3.3-0.7-5c-0.3-3.3-0.4-6.7-0.1-10
					C529.3,1523.8,531,1517.3,534,1511.5z"/>
			</g>
			<g>
				<path class="st3" d="M608,1537.5c2.5,1.9,4,4.7,4.6,7.6c0.3,1.5,0.4,3.1,0.3,4.6c-0.1,1.5-0.4,3.1-1,4.6
					c-0.5,1.5-1.3,2.9-2.2,4.1c-0.9,1.3-2,2.4-3.2,3.3c-2.5,1.8-5.4,3-8.5,2.8c1.5-2.7,2.8-4.8,3.8-6.9c1-2.1,1.9-4,2.6-6
					c0.7-2,1.4-4,1.9-6.3C607,1543,607.4,1540.5,608,1537.5z"/>
			</g>
		</g>
	</g>
	<ellipse class="st3" cx="590" cy="1966" rx="12.5" ry="6"/>
	<g>
		<g>
			<path class="st5" d="M258,912.5c58-45,119-71,164-83c-33.8-47.9-60.6-79.7-83.5-107.5c-34.2-41.5-39.5-9.5-44.5,12.5
				c-5,22-49,305-95,342c-61.8,49.7-109.9-80.5-120-134c-7-37-13-136-12-128"/>
			<linearGradient id="SVGID_1_" gradientUnits="userSpaceOnUse" x1="272.5" y1="801.4594" x2="382.5633" y2="801.4594">
				<stop  offset="0" style="stop-color:#FFC9A1"/>
				<stop  offset="1" style="stop-color:#F9CC9E;stop-opacity:0.5"/>
			</linearGradient>
			<path class="st6" d="M339.5,738c-12.9-18.7-19.5-28.1-25-27c-9.5,1.8-12.3,29.3-19,65c-12,64-15,75-23,116c47-34,85-47,139-65"/>
			<path class="st7" d="M274.5,878c49.4-37.4,91.5-39.7,127-52c-12.2-21.7-59.7-57.9-98-89"/>
		</g>
		<path class="st8" d="M66,815.5c61.7-47.3,254-118,244-112"/>
		
			<linearGradient id="SVGID_00000029749587273092473090000002117104271476218287_" gradientUnits="userSpaceOnUse" x1="76.1227" y1="900.5062" x2="241.1205" y2="900.5062">
			<stop  offset="0" style="stop-color:#FFC9A1"/>
			<stop  offset="1" style="stop-color:#F9CC9E;stop-opacity:0.5"/>
		</linearGradient>
		<path style="fill:url(#SVGID_00000029749587273092473090000002117104271476218287_);" d="M76.5,820c26.8-16.6,57.4-33.7,92-50
			c41.7-19.6,81-34.1,116-45c-42.1,285.6-82.1,350.2-110,351c-35.3,1-64.4-63.2-76-98C81.2,925.9,74.4,847.2,76.5,820z"/>
	</g>
	<g>
		<g>
			<path class="st5" d="M865,920.5c-58-45-119-71-164-83c33.8-47.9,60.6-79.7,83.5-107.5c34.2-41.5,39.5-9.5,44.5,12.5
				c5,22,49,305,95,342c61.8,49.7,109.9-80.5,120-134c7-37,13-136,12-128"/>
			
				<linearGradient id="SVGID_00000073711023910412908020000000257124347361073798_" gradientUnits="userSpaceOnUse" x1="-347.5" y1="809.4594" x2="-237.4367" y2="809.4594" gradientTransform="matrix(-1 0 0 1 503 0)">
				<stop  offset="0" style="stop-color:#FFC9A1"/>
				<stop  offset="1" style="stop-color:#F9CC9E;stop-opacity:0.5"/>
			</linearGradient>
			<path style="fill:url(#SVGID_00000073711023910412908020000000257124347361073798_);" d="M783.5,746c12.9-18.7,19.5-28.1,25-27
				c9.5,1.8,12.3,29.3,19,65c12,64,15,75,23,116c-47-34-85-47-139-65"/>
			<path class="st7" d="M848.5,886c-49.4-37.4-91.5-39.7-127-52c12.2-21.7,59.7-57.9,98-89"/>
		</g>
		<path class="st8" d="M1057,823.5c-61.7-47.3-254-118-244-112"/>
		
			<linearGradient id="SVGID_00000094584624576828456950000011964807594650112692_" gradientUnits="userSpaceOnUse" x1="-543.8773" y1="908.5062" x2="-378.8795" y2="908.5062" gradientTransform="matrix(-1 0 0 1 503 0)">
			<stop  offset="0" style="stop-color:#FFC9A1"/>
			<stop  offset="1" style="stop-color:#F9CC9E;stop-opacity:0.5"/>
		</linearGradient>
		<path style="fill:url(#SVGID_00000094584624576828456950000011964807594650112692_);" d="M1046.5,828c-26.8-16.6-57.4-33.7-92-50
			c-41.7-19.6-81-34.1-116-45c42.1,285.6,82.1,350.2,110,351c35.3,1,64.4-63.2,76-98C1041.8,933.9,1048.6,855.2,1046.5,828z"/>
	</g>
</g>
<g>
	<rect x="555.1" y="1892" width="14" height="74"/>
	<circle class="st0" cx="370.1" cy="1067" r="57"/>
	<circle class="st0" cx="743.1" cy="1067" r="57"/>
	<g class="st0">
		<path d="M742.1,1454c-0.6-6.1-5.5-3.5-11.4,1.3c-4.5,3.6-9.5,6.4-14.9,8.2c-13.4,4.6-33,9.2-56.7,8.5c-21.8-0.7-45.1-10.5-60.9-18
			c-8.6-4.1-14.1-12.9-14.1-22.4v-43.2c0-11.5,7.9-21.5,19.1-24.2c23.8-5.9,48-19.9,56.9-39.1c1-2.2,14.4-32.1,0-59
			c-14.5-26.9-47.9-34.1-73.9-35.3l0,0c-2.2-0.1-4.6-0.2-7.1-0.2c-0.1,0-0.1,0-0.2,0c-0.5,0-1.1,0-1.6,0c-0.5,0-1.1,0-1.6,0
			c-0.1,0-0.1,0-0.2,0c-2.5,0-4.9,0.1-7.1,0.2l0,0c-26.1,1.2-59.5,8.4-73.9,35.3c-14.4,26.9-1,56.8,0,59
			c8.9,19.1,32.1,31.9,55.4,37.3c11.2,2.6,19.3,12.4,19.5,23.9c0.2,14.2,0.5,29.9,0.7,43.5c0.1,9.3-5,17.9-13.2,22.3
			c-14.9,7.9-36.6,18.3-58.4,18.9c-27.7,0.9-49.7-5.7-63-10.8c-1.9-0.7-3.7-1.7-5.4-2.9c-7.8-5.5-17-10.6-17.7-3.3
			c-1.6,16.2,31,29.5,37,32c29.3,12,56.3,7.8,67,6c19.6-3.3,35.9-10.3,48.4-17.5c7.7-4.5,17.2-4.5,25,0
			c12.5,7.2,28.8,14.2,48.4,17.5c10.7,1.8,37.7,6,67-6C711.1,1483.5,743.7,1470.2,742.1,1454z"/>
		<ellipse class="st3" cx="558.1" cy="1261.5" rx="20" ry="12.5"/>
		<circle class="st3" cx="342.7" cy="1046.4" r="18.6"/>
		<circle class="st3" cx="370" cy="1067.2" r="10.8"/>
		<circle class="st3" cx="769.7" cy="1044.4" r="18.6"/>
		<circle class="st3" cx="748" cy="1069.2" r="10.8"/>
		<ellipse class="st12" cx="809.6" cy="1272" rx="75.5" ry="25"/>
		<ellipse class="st12" cx="356.6" cy="1268" rx="75.5" ry="25"/>
	</g>
	<path class="st13" d="M532.1,1950.5c-19.8-0.8-36,16.1-40.3,29.1c-8.4,25.4,18.8,64.6,71.6,91.8c52.4-26.8,80.6-65.6,72.5-91.8
		c-4.1-13.1-20.3-29-40.3-29.1c-18.6-0.1-31.1,13.7-33.5,16.5C559.5,1963.8,548.7,1951.2,532.1,1950.5z"/>
	<g>
		<path class="st14" d="M984.1,1718.1c-218.2,274-635.7,274-853.9,0c-5.6-7-5.6-16.1-0.3-20c5.1-3.8,10.1-7.6,15.2-11.4
			c5.3-3.9,13.7-1.8,18.7,4.6c201.1,252.4,585.7,252.4,786.7,0c5.1-6.4,13.4-8.5,18.7-4.6c5.1,3.8,10.1,7.6,15.2,11.4
			C989.7,1702,989.6,1711.2,984.1,1718.1z"/>
		<path class="st15" d="M984.1,1718.1c-218.2,274-635.7,274-853.9,0c-5.6-7-5.6-16.1-0.3-20c5.1-3.8,10.1-7.6,15.2-11.4
			c5.3-3.9,13.7-1.8,18.7,4.6c201.1,252.4,585.7,252.4,786.7,0c5.1-6.4,13.4-8.5,18.7-4.6c5.1,3.8,10.1,7.6,15.2,11.4
			C989.7,1702,989.6,1711.2,984.1,1718.1z"/>
	</g>
	<ellipse class="st3" cx="598.6" cy="1978" rx="12.5" ry="6"/>
</g>
</svg>
