<svg id="Capa_1" data-name="Capa 1" xmlns="http://www.w3.org/2000/svg" xmlns:xlink="http://www.w3.org/1999/xlink" viewBox="0 0 1125 2436"><defs><style>.cls-1,.cls-12{opacity:0.83;}.cls-2{fill:#ff6583;}.cls-3{fill:#790000;}.cls-4,.cls-5{fill:#fff;}.cls-5,.cls-7,.cls-8{stroke:#790000;}.cls-14,.cls-16,.cls-5,.cls-7,.cls-8{stroke-miterlimit:10;}.cls-5,.cls-8{stroke-width:9px;}.cls-6{fill:url(#Degradado_sin_nombre_13);}.cls-13,.cls-7{fill:#daa399;}.cls-14,.cls-7{stroke-width:4px;}.cls-16,.cls-8{fill:none;}.cls-9{fill:url(#Degradado_sin_nombre_2);}.cls-10{fill:url(#Degradado_sin_nombre_13-2);}.cls-11{fill:url(#Degradado_sin_nombre_4);}.cls-14{fill:#ffb8ff;}.cls-14,.cls-16{stroke:#000;}.cls-15{fill:#c5fcff;}.cls-16{stroke-width:7px;}</style><linearGradient id="Degradado_sin_nombre_13" x1="272.5" y1="801.46" x2="382.56" y2="801.46" gradientUnits="userSpaceOnUse"><stop offset="0" stop-color="#ffc9a1"/><stop offset="1" stop-color="#f9cc9e" stop-opacity="0.5"/></linearGradient><linearGradient id="Degradado_sin_nombre_2" x1="76.12" y1="900.51" x2="320.93" y2="900.51" gradientUnits="userSpaceOnUse"><stop offset="0" stop-color="#ffc9a1"/><stop offset="1" stop-color="#fff" stop-opacity="0.5"/></linearGradient><linearGradient id="Degradado_sin_nombre_13-2" x1="-347.5" y1="809.46" x2="-237.44" y2="809.46" gradientTransform="matrix(-1, 0, 0, 1, 503, 0)" xlink:href="#Degradado_sin_nombre_13"/><linearGradient id="Degradado_sin_nombre_4" x1="-543.88" y1="908.51" x2="-363.01" y2="908.51" gradientTransform="matrix(-1, 0, 0, 1, 503, 0)" gradientUnits="userSpaceOnUse"><stop offset="0" stop-color="#ffc9a1"/><stop offset="1" stop-color="#fff"/></linearGradient></defs><g class="cls-1"><path class="cls-2" d="M575,1471c-8.16.68-11.06,4.69-25,11a122.49,122.49,0,0,1-24,8v69.5c2.61,4.46,15.51,25.38,41,31,19.3,4.26,46.78,0,59-20,6-9.83,6.33-20.19,6-26-.64-17-1.29-34.52-1.93-51.58a3,3,0,0,0-1.86-2.65c-8.21-2.27-16-5.59-25.21-9.27C588,1475,586.05,1470.08,575,1471Z"/><path class="cls-3" d="M577,1534.5a76.37,76.37,0,0,1-3.78-15.69,128.17,128.17,0,0,1-1.22-15.74,126,126,0,0,1,.71-15.76A75.08,75.08,0,0,1,576,1471.5a75.61,75.61,0,0,1,3.79,15.69,126.21,126.21,0,0,1,1.21,15.74,128,128,0,0,1-.72,15.76A76.2,76.2,0,0,1,577,1534.5Z"/><path class="cls-3" d="M534,1511.5a97.78,97.78,0,0,0-1.32,19,73.73,73.73,0,0,0,.87,9.3,69.9,69.9,0,0,0,2,9.08,75.79,75.79,0,0,0,7.27,17.12A96.75,96.75,0,0,0,554,1581.5a49.72,49.72,0,0,1-14.49-13.29,55.5,55.5,0,0,1-8.79-17.91c-.26-.8-.42-1.62-.62-2.44s-.42-1.62-.54-2.45c-.28-1.65-.58-3.3-.71-5a53.79,53.79,0,0,1-.09-10A50.48,50.48,0,0,1,534,1511.5Z"/><path class="cls-4" d="M608,1537.5a12.76,12.76,0,0,1,4.65,7.64,16.17,16.17,0,0,1,.31,4.61,17.06,17.06,0,0,1-1,4.57,16.5,16.5,0,0,1-2.2,4.12,15.14,15.14,0,0,1-3.24,3.3,12.58,12.58,0,0,1-8.52,2.76c1.52-2.71,2.77-4.84,3.82-6.94a54.27,54.27,0,0,0,2.63-6,53.21,53.21,0,0,0,1.93-6.28C607,1543,607.39,1540.54,608,1537.5Z"/></g><ellipse class="cls-4" cx="590" cy="1966" rx="12.5" ry="6"/><path class="cls-5" d="M258,912.5c58-45,119-71,164-83-33.79-47.9-60.58-79.73-83.5-107.5-34.22-41.46-39.5-9.5-44.5,12.5s-49,305-95,342C137.2,1126.21,89.11,996,79,942.5c-7-37-13-136-12-128"/><path class="cls-6" d="M339.5,738c-12.92-18.72-19.49-28.06-25-27-9.46,1.82-12.3,29.26-19,65-12,64-15,75-23,116,47-34,85-47,139-65"/><path class="cls-7" d="M274.5,878c49.44-37.42,91.5-39.68,127-52-12.16-21.67-59.69-57.9-98-89"/><path class="cls-8" d="M66,815.5c61.67-47.33,254-118,244-112"/><path class="cls-9" d="M76.5,820a897.33,897.33,0,0,1,208-95c-42.09,285.59-82.14,350.18-110,351-35.31,1-64.44-63.19-76-98C81.19,925.87,74.37,847.23,76.5,820Z"/><path class="cls-5" d="M865,920.5c-58-45-119-71-164-83,33.79-47.9,60.58-79.73,83.5-107.5,34.22-41.46,39.5-9.5,44.5,12.5s49,305,95,342c61.8,49.71,109.89-80.54,120-134,7-37,13-136,12-128"/><path class="cls-10" d="M783.5,746c12.92-18.72,19.49-28.06,25-27,9.46,1.82,12.3,29.26,19,65,12,64,15,75,23,116-47-34-85-47-139-65"/><path class="cls-7" d="M848.5,886c-49.44-37.42-91.5-39.68-127-52,12.16-21.67,59.69-57.9,98-89"/><path class="cls-8" d="M1057,823.5c-61.67-47.33-254-118-244-112"/><path class="cls-11" d="M1046.5,828a897.33,897.33,0,0,0-208-95c42.09,285.59,82.14,350.18,110,351,35.31,1,64.44-63.19,76-98C1041.81,933.87,1048.63,855.23,1046.5,828Z"/><rect x="555.12" y="1892" width="14" height="74"/><path class="cls-12" d="M800.12,1067c0,31.48-23.64,44-55.12,44s-58.88-12.52-58.88-44,25.4-50,56.88-50S800.12,1035.52,800.12,1067Z"/><path class="cls-12" d="M431.12,1067c0,31.48-23.64,44-55.12,44s-58.88-12.52-58.88-44,25.4-50,56.88-50S431.12,1035.52,431.12,1067Z"/><g class="cls-1"><path d="M739.94,1447.06c-1-6.06-5.77-3.06-11.31,2.07a49.16,49.16,0,0,1-14.26,9.26,160.62,160.62,0,0,1-56,12.48c-21.76.86-45.69-7.25-62-13.7a24.88,24.88,0,0,1-15.66-21.39l-3-43.1A25,25,0,0,1,595,1367.19c23.36-7.52,46.48-23.28,54-43,.87-2.26,12.13-33.07-4.15-58.85s-50.16-30.6-76.25-30v0c-2.2.07-4.58.17-7.07.33h-.22l-1.63.11-1.63.12-.22,0c-2.48.19-4.85.42-7,.67v0c-25.92,3.06-58.76,12.55-71.27,40.41s3,56.74,4.15,58.86c10.21,18.39,34.25,29.53,57.94,33.25a25,25,0,0,1,21.14,22.51c1.2,14.11,2.63,29.82,3.76,43.39a24.88,24.88,0,0,1-11.63,23.19c-14.31,8.91-35.17,20.8-56.92,23a160.54,160.54,0,0,1-63.57-6.32,24.93,24.93,0,0,1-5.55-2.49c-8.22-4.93-17.68-9.37-17.87-2.08-.42,16.31,33,27.28,39.17,29.31,30,9.87,56.73,3.79,67.25,1.26a143.82,143.82,0,0,0,47-20.9,24.88,24.88,0,0,1,24.9-1.76,143.78,143.78,0,0,0,49.51,14.08c10.78,1,38,3.29,66.41-10.71C711.13,1478.71,742.65,1463.15,739.94,1447.06Z"/><ellipse class="cls-4" cx="558.12" cy="1261.5" rx="20" ry="12.5"/><circle class="cls-4" cx="396.65" cy="1046.42" r="18.58"/><circle class="cls-4" cx="370" cy="1067.21" r="10.77"/><circle class="cls-4" cx="722.65" cy="1044.42" r="18.58"/><circle class="cls-4" cx="748" cy="1069.21" r="10.77"/><ellipse class="cls-13" cx="809.62" cy="1272" rx="75.5" ry="25"/><ellipse class="cls-13" cx="356.62" cy="1268" rx="75.5" ry="25"/></g><path class="cls-14" d="M532.13,1950.5c-19.82-.83-36,16.06-40.3,29.1-8.38,25.39,18.82,64.57,71.64,91.78,52.35-26.84,80.59-65.61,72.45-91.78-4.06-13.07-20.25-29-40.29-29.1-18.62-.06-31.08,13.71-33.51,16.5C559.55,1963.84,548.65,1951.18,532.13,1950.5Z"/><path class="cls-15" d="M984.09,1718.14c-218.24,274-635.7,274-853.94,0-5.56-7-5.62-16.1-.32-20l15.2-11.4c5.3-3.94,13.65-1.76,18.73,4.6,201.06,252.41,585.66,252.41,786.72,0,5.08-6.36,13.44-8.54,18.74-4.6l15.19,11.4C989.71,1702,989.65,1711.17,984.09,1718.14Z"/><path class="cls-16" d="M984.09,1718.14c-218.24,274-635.7,274-853.94,0-5.56-7-5.62-16.1-.32-20l15.2-11.4c5.3-3.94,13.65-1.76,18.73,4.6,201.06,252.41,585.66,252.41,786.72,0,5.08-6.36,13.44-8.54,18.74-4.6l15.19,11.4C989.71,1702,989.65,1711.17,984.09,1718.14Z"/><ellipse class="cls-4" cx="598.62" cy="1978" rx="12.5" ry="6"/></svg>